<?xml version="1.0" standalone="no"?>
<!DOCTYPE svg PUBLIC "-//W3C//DTD SVG 20010904//EN"
 "http://www.w3.org/TR/2001/REC-SVG-20010904/DTD/svg10.dtd">
<svg version="1.0" xmlns="http://www.w3.org/2000/svg"
 width="580.000000pt" height="387.000000pt" viewBox="0 0 580.000000 387.000000"
 preserveAspectRatio="xMidYMid meet">

<g transform="translate(0.000000,387.000000) scale(0.100000,-0.100000)"
fill="#000000" stroke="none">
<path d="M2360 2744 c-280 -36 -575 -159 -795 -334 -52 -41 -71 -50 -145 -65
-116 -24 -180 -49 -220 -88 -48 -47 -68 -99 -115 -301 l-6 -29 36 32 c49 43
100 41 127 -5 25 -43 38 -146 38 -311 l0 -142 38 -10 c20 -6 159 -40 307 -76
149 -36 364 -88 478 -116 114 -28 211 -49 214 -46 3 4 -6 34 -20 69 -52 131
-61 178 -62 303 0 104 3 125 22 160 59 111 161 144 271 89 60 -30 96 -69 128
-139 56 -123 52 -271 -12 -456 -19 -56 -33 -104 -30 -106 12 -12 228 -33 463
-44 635 -32 1224 53 1476 213 26 17 46 32 45 34 -2 1 -35 -6 -73 -17 -426
-118 -982 -174 -1495 -150 -129 6 -254 14 -276 17 l-41 6 14 47 c96 313 27
573 -177 669 -65 31 -163 35 -221 10 -59 -26 -114 -83 -145 -150 -27 -58 -29
-72 -29 -178 1 -79 6 -134 18 -175 10 -33 20 -68 23 -77 4 -13 0 -18 -13 -18
-10 1 -198 45 -418 99 l-400 97 -3 60 c-13 324 -57 474 -137 474 -29 0 -31 10
-11 48 36 69 96 102 236 131 80 16 93 23 147 68 168 145 383 251 613 300 105
22 420 25 515 5 181 -40 359 -113 463 -193 66 -49 53 -22 -25 52 -171 163
-362 237 -628 244 -77 2 -156 1 -175 -1z"/>
<path d="M3200 2364 c-25 -2 -103 -9 -175 -15 -154 -12 -428 -46 -765 -95
-269 -38 -491 -63 -579 -65 l-56 -2 75 -9 c110 -14 449 -1 735 27 138 14 349
35 470 47 178 18 285 22 555 23 303 0 347 -2 455 -22 213 -39 369 -101 493
-196 l53 -40 -30 -27 c-37 -34 -53 -91 -49 -174 l3 -63 90 53 c50 29 95 53
102 53 19 1 71 -139 82 -223 6 -44 9 -109 5 -145 l-5 -66 20 23 c72 82 44 334
-55 490 -131 208 -374 344 -717 403 -98 17 -174 21 -392 24 -148 1 -290 1
-315 -1z m1323 -419 c15 -19 25 -39 22 -44 -3 -6 -30 -23 -59 -39 l-55 -29 -6
24 c-8 34 12 89 38 108 29 20 28 20 60 -20z"/>
<path d="M2894 1963 c-28 -3 -49 -12 -64 -28 -13 -14 -22 -26 -19 -28 2 -2 50
-32 106 -66 l103 -63 272 -13 c399 -20 398 -20 398 -15 -1 9 -289 130 -393
165 -137 45 -265 60 -403 48z m293 -58 c69 -16 336 -115 329 -122 -2 -2 -112
5 -245 16 l-241 21 -68 42 c-37 23 -71 45 -76 50 -17 14 235 9 301 -7z"/>
</g>
</svg>
