<?xml version="1.0" standalone="no"?>
<!DOCTYPE svg PUBLIC "-//W3C//DTD SVG 20010904//EN"
 "http://www.w3.org/TR/2001/REC-SVG-20010904/DTD/svg10.dtd">
<svg version="1.0" xmlns="http://www.w3.org/2000/svg"
 width="300px" height="300px" viewBox="50 50 50 90"
 preserveAspectRatio="xMidYMid meet">

<g transform="translate(0.000000,233.000000) scale(0.100000,-0.100000)"
fill="#fff" stroke="none">
<path d="M907 1774 c-32 -7 -83 -26 -115 -41 -48 -24 -53 -28 -32 -31 106 -13
211 -36 263 -58 68 -29 188 -108 230 -152 27 -28 30 -29 85 -20 98 14 152 29
152 42 0 7 -13 31 -28 52 -126 172 -353 257 -555 208z"/>
<path d="M603 1579 c-51 -67 -65 -96 -92 -183 -39 -127 -22 -282 46 -408 34
-64 131 -164 195 -201 l48 -28 77 26 c70 24 180 90 211 127 9 12 2 14 -47 10
-132 -10 -260 69 -319 195 -52 112 -29 258 56 354 36 41 116 87 181 104 l46
12 -55 17 c-35 11 -101 20 -180 23 l-126 5 -41 -53z"/>
<path d="M1649 1414 c-41 -77 -180 -162 -275 -170 l-59 -4 42 16 c43 16 143
97 143 116 0 6 -8 4 -17 -4 -31 -28 -96 -49 -175 -58 -42 -5 -91 -16 -108 -25
-50 -26 -105 -81 -125 -126 -19 -41 -19 -42 0 -55 25 -18 144 -54 179 -54 l27
0 -32 -47 c-41 -60 -175 -193 -194 -193 -7 0 -15 -4 -17 -9 -1 -5 -34 -25 -72
-44 l-68 -35 57 -7 c259 -33 506 128 584 379 11 37 32 81 45 99 38 50 76 140
83 196 7 57 3 63 -18 25z"/>
<path d="M1110 1390 c-8 -6 -61 -10 -118 -10 -103 0 -135 -8 -159 -39 -18 -24
-15 -33 6 -21 24 12 61 13 61 2 0 -5 -17 -14 -38 -20 -20 -6 -46 -18 -57 -26
-19 -15 -18 -15 13 -16 48 0 98 -24 158 -75 l52 -45 10 29 c22 61 119 147 193
170 28 9 19 10 -53 8 -49 -2 -88 0 -88 4 0 3 10 13 23 22 24 16 21 32 -3 17z"/>
<path d="M911 80 c0 -19 3 -29 6 -22 4 10 9 9 20 -5 15 -18 14 -16 -13 35
l-14 27 1 -35z"/>
<path d="M1235 100 c-4 -6 1 -7 11 -3 14 5 16 3 10 -13 -5 -14 -4 -16 5 -7 12
12 5 33 -11 33 -5 0 -12 -4 -15 -10z"/>
<path d="M1285 100 c-4 -6 1 -7 11 -3 14 5 16 3 10 -13 -5 -14 -4 -16 5 -7 12
12 5 33 -11 33 -5 0 -12 -4 -15 -10z"/>
<path d="M1334 99 c-5 -8 -3 -9 6 -4 7 4 16 2 22 -6 8 -12 9 -12 6 0 -6 20
-24 25 -34 10z"/>
<path d="M1435 99 c-11 -16 -1 -19 13 -3 7 8 8 14 3 14 -5 0 -13 -5 -16 -11z"/>
<path d="M1535 100 c-3 -6 1 -7 9 -4 18 7 21 14 7 14 -6 0 -13 -4 -16 -10z"/>
<path d="M1585 101 c-3 -6 0 -9 7 -6 17 7 19 -36 4 -48 -7 -5 -5 -7 4 -4 9 2
15 15 15 32 -1 29 -18 44 -30 26z"/>
<path d="M1635 101 c-3 -7 0 -8 9 -5 19 7 20 1 5 -29 -10 -21 -10 -21 6 -2 8
10 14 24 12 29 -5 14 -24 19 -32 7z"/>
<path d="M1685 101 c-3 -6 0 -9 7 -6 8 3 14 -4 14 -21 2 -20 -2 -24 -15 -19
-12 5 -13 3 -4 -6 17 -17 32 -2 29 28 -3 28 -20 41 -31 24z"/>
<path d="M600 70 c0 -16 4 -30 8 -30 5 0 7 13 4 30 -2 17 -6 30 -8 30 -2 0 -4
-13 -4 -30z"/>
<path d="M630 77 c0 -14 4 -28 8 -31 9 -5 8 41 -1 51 -4 3 -7 -5 -7 -20z"/>
<path d="M790 77 c0 -14 4 -28 8 -31 9 -5 8 41 -1 51 -4 3 -7 -5 -7 -20z"/>
<path d="M500 73 c0 -10 4 -14 8 -8 4 6 11 13 16 18 5 4 2 7 -7 7 -10 0 -17
-8 -17 -17z"/>
<path d="M666 82 c-2 -4 4 -8 14 -8 10 0 16 4 14 8 -3 4 -9 8 -14 8 -5 0 -11
-4 -14 -8z"/>
<path d="M715 79 c-4 -6 -5 -12 -2 -15 2 -3 7 2 10 11 7 17 1 20 -8 4z"/>
<path d="M823 74 c-8 -23 12 -40 31 -25 10 8 16 9 21 1 3 -5 12 -10 18 -9 9 0
9 2 0 6 -16 6 -17 33 -1 33 6 0 8 3 5 6 -4 4 -13 1 -21 -5 -10 -8 -16 -9 -21
-1 -9 15 -25 12 -32 -6z m29 -9 c0 -5 -5 -11 -11 -13 -6 -2 -11 4 -11 13 0 9
5 15 11 13 6 -2 11 -8 11 -13z"/>
<path d="M987 76 c-3 -8 2 -20 11 -28 15 -11 15 -11 5 3 -10 12 -10 18 -1 27
8 8 9 12 1 12 -6 0 -13 -6 -16 -14z"/>
<path d="M1035 80 c-3 -6 1 -7 9 -4 11 4 16 0 16 -11 0 -12 -5 -15 -17 -10
-15 5 -16 4 -5 -6 16 -17 37 3 29 25 -7 18 -23 21 -32 6z"/>
<path d="M1082 65 c0 -16 2 -22 5 -12 2 9 2 23 0 30 -3 6 -5 -1 -5 -18z"/>
<path d="M1116 82 c7 -4 14 -16 17 -27 4 -15 5 -14 6 8 1 20 -4 27 -16 27 -12
0 -14 -3 -7 -8z"/>
<path d="M1555 79 c-4 -6 -5 -12 -2 -15 2 -3 7 2 10 11 7 17 1 20 -8 4z"/>
<path d="M1375 70 c-3 -5 -1 -10 4 -10 6 0 11 5 11 10 0 6 -2 10 -4 10 -3 0
-8 -4 -11 -10z"/>
<path d="M465 50 c-3 -5 -1 -10 4 -10 6 0 11 5 11 10 0 6 -2 10 -4 10 -3 0 -8
-4 -11 -10z"/>
<path d="M560 50 c-9 -6 -10 -10 -3 -10 6 0 15 5 18 10 8 12 4 12 -15 0z"/>
<path d="M667 49 c7 -7 15 -10 18 -7 3 3 -2 9 -12 12 -14 6 -15 5 -6 -5z"/>
<path d="M1280 49 c0 -5 9 -9 20 -9 11 0 20 2 20 4 0 2 -9 6 -20 9 -11 3 -20
1 -20 -4z"/>
<path d="M1330 49 c0 -5 9 -9 20 -9 11 0 20 2 20 4 0 2 -9 6 -20 9 -11 3 -20
1 -20 -4z"/>
<path d="M1238 43 c6 -2 18 -2 25 0 6 3 1 5 -13 5 -14 0 -19 -2 -12 -5z"/>
<path d="M1438 43 c7 -3 16 -2 19 1 4 3 -2 6 -13 5 -11 0 -14 -3 -6 -6z"/>
</g>
</svg>
