<?xml version="1.0" standalone="no"?>
<!DOCTYPE svg PUBLIC "-//W3C//DTD SVG 20010904//EN"
 "http://www.w3.org/TR/2001/REC-SVG-20010904/DTD/svg10.dtd">
<svg version="1.0" xmlns="http://www.w3.org/2000/svg"
 width="5" height="5" viewBox="0 0 375 374"
 preserveAspectRatio="xMidYMid meet">

<g transform="translate(0.000000,500) scale(0.100000,-0.100000)"
fill="#fffdfd" stroke="none">
<path d="M1700 1953 c-180 -12 -349 -67 -475 -152 -47 -32 -28 -25 90 33 61
29 128 59 149 66 66 21 386 -4 386 -31 0 -5 -6 -9 -12 -9 -14 0 -95 -61 -204
-153 -107 -90 -139 -102 -264 -101 -155 2 -325 44 -325 80 0 11 16 28 40 42
l40 24 -85 -6 c-183 -12 -310 -78 -400 -206 -20 -29 -13 -25 39 23 34 31 81
67 104 78 l42 20 -30 -23 c-99 -76 -205 -204 -205 -249 0 -13 3 -40 6 -60 6
-33 10 -37 58 -52 28 -8 101 -18 161 -21 l110 -7 56 49 c31 27 74 63 95 81 48
41 33 34 -76 -39 l-85 -56 -68 10 -68 11 148 74 c81 41 191 89 243 106 l95 32
-40 7 c-118 21 -205 54 -252 98 -27 25 -33 23 -177 -57 -53 -29 -96 -49 -96
-45 0 20 92 85 179 128 90 43 94 44 107 27 8 -10 14 -22 14 -26 0 -15 94 -51
182 -70 93 -19 104 -20 563 -21 123 -1 149 6 355 97 91 40 183 78 205 85 22 7
34 15 28 17 -14 5 -177 -51 -348 -118 -108 -43 -112 -44 -227 -44 -75 1 -122
5 -129 12 -18 18 112 139 205 192 162 92 274 115 431 87 106 -18 235 -55 235
-68 0 -4 -7 -8 -16 -8 -8 0 -36 -22 -62 -48 -38 -38 -59 -51 -110 -65 -35 -10
-87 -29 -115 -44 -53 -26 -120 -73 -114 -79 2 -2 46 14 97 36 52 22 107 40
123 40 32 0 33 -9 16 -107 -9 -52 -15 -64 -33 -68 -201 -40 -312 -73 -446
-130 l-78 -32 -19 40 c-10 23 -41 65 -69 93 -83 86 -176 101 -298 50 -53 -22
-112 -82 -136 -139 -26 -59 -37 -162 -24 -234 l8 -48 7 83 c9 93 38 167 89
226 90 102 230 101 300 -1 21 -31 25 -48 25 -112 0 -42 -3 -88 -8 -103 -7 -26
-5 -25 56 21 162 122 369 202 606 232 l88 11 6 77 c12 147 67 241 141 241 48
0 72 -13 91 -50 17 -33 20 -128 5 -179 -14 -49 -5 -50 19 -3 26 52 43 151 39
237 l-3 69 -80 12 c-44 6 -129 25 -190 42 -219 63 -489 91 -715 75z"/>
<path d="M567 1403 c-11 -10 -8 -113 3 -113 6 0 10 27 10 60 0 61 -1 65 -13
53z"/>
<path d="M1000 1226 c-80 -29 -153 -55 -162 -58 -16 -7 -16 -10 5 -42 19 -30
29 -35 77 -42 35 -4 80 -2 125 7 l69 14 18 79 c10 44 17 83 16 86 -2 4 -68
-16 -148 -44z"/>
<path d="M580 1244 c0 -31 44 -74 76 -74 21 0 22 3 14 31 -11 38 -7 33 -52 52
-38 16 -38 16 -38 -9z"/>
<path d="M923 95 c0 -27 2 -38 4 -22 2 15 8 27 13 27 5 0 11 -12 13 -27 4 -26
4 -26 6 5 1 22 -4 32 -13 32 -8 0 -17 8 -19 18 -3 9 -5 -5 -4 -33z"/>
<path d="M1422 95 c0 -27 2 -43 5 -35 3 8 13 24 22 35 15 18 15 19 -1 7 -14
-12 -17 -10 -21 15 -2 16 -4 6 -5 -22z"/>
<path d="M1039 119 c-8 -20 4 -62 19 -65 7 -1 8 0 2 3 -15 7 -12 43 4 43 8 0
16 -10 18 -22 2 -12 9 -23 16 -24 7 -1 8 0 2 3 -12 6 -13 40 -1 45 5 2 3 9 -5
16 -8 7 -14 8 -14 2 0 -14 -27 -13 -32 2 -3 8 -6 7 -9 -3z"/>
<path d="M1269 118 c-2 -25 3 -53 11 -62 5 -5 6 1 3 14 -3 12 -1 25 4 29 7 4
6 11 -3 19 -11 10 -14 10 -15 0z"/>
<path d="M1820 125 c-1 -5 -1 -21 0 -34 1 -13 -4 -28 -12 -32 -9 -6 -3 -9 17
-9 17 0 25 4 18 8 -6 4 -13 23 -16 42 -2 19 -5 31 -7 25z"/>
<path d="M1880 125 c-1 -5 -1 -21 0 -34 1 -13 -4 -28 -12 -32 -9 -6 -3 -9 17
-9 17 0 25 4 18 8 -6 4 -13 23 -16 42 -2 19 -5 31 -7 25z"/>
<path d="M1932 105 c-22 -28 -23 -30 -5 -34 10 -2 21 -8 24 -13 10 -15 16 14
10 47 l-6 29 -23 -29z m14 -22 c-10 -10 -19 5 -10 18 6 11 8 11 12 0 2 -7 1
-15 -2 -18z"/>
<path d="M1987 123 c-12 -12 -7 -33 7 -33 26 0 28 -20 4 -29 -14 -6 -17 -10
-7 -10 8 -1 20 4 26 10 14 14 6 39 -13 39 -20 0 -17 18 4 23 14 4 14 5 1 6 -9
0 -19 -2 -22 -6z"/>
<path d="M2045 120 c-4 -6 1 -7 11 -3 13 5 16 3 11 -10 -3 -9 -2 -19 4 -22 14
-9 -1 -27 -18 -21 -8 3 -11 1 -8 -4 9 -14 32 -12 38 3 14 38 -19 88 -38 57z"/>
<path d="M2104 115 c-4 -8 -1 -22 6 -30 6 -8 9 -19 5 -25 -3 -5 -4 -10 -1 -10
10 0 33 55 29 68 -6 17 -32 15 -39 -3z m28 -10 c0 -5 -5 -11 -11 -13 -6 -2
-11 4 -11 13 0 9 5 15 11 13 6 -2 11 -8 11 -13z"/>
<path d="M2172 105 c-22 -28 -23 -30 -5 -34 10 -2 21 -8 24 -13 10 -15 16 14
10 47 l-6 29 -23 -29z m14 -22 c-10 -10 -19 5 -10 18 6 11 8 11 12 0 2 -7 1
-15 -2 -18z"/>
<path d="M2230 106 c-15 -29 -8 -56 15 -56 23 0 31 31 12 45 -12 9 -14 14 -5
23 7 7 8 12 2 12 -6 0 -16 -11 -24 -24z m22 -31 c0 -5 -5 -11 -11 -13 -6 -2
-11 4 -11 13 0 9 5 15 11 13 6 -2 11 -8 11 -13z"/>
<path d="M2287 123 c-12 -12 -7 -33 7 -33 26 0 28 -20 4 -29 -14 -6 -17 -10
-7 -10 8 -1 20 4 26 10 14 14 6 39 -13 39 -20 0 -17 18 4 23 14 4 14 5 1 6 -9
0 -19 -2 -22 -6z"/>
<path d="M2344 115 c-4 -8 -1 -22 6 -30 6 -8 9 -19 5 -25 -3 -5 -4 -10 -1 -10
10 0 33 55 29 68 -6 17 -32 15 -39 -3z m28 -10 c0 -5 -5 -11 -11 -13 -6 -2
-11 4 -11 13 0 9 5 15 11 13 6 -2 11 -8 11 -13z"/>
<path d="M870 93 c0 -10 4 -14 8 -8 4 6 11 13 16 18 5 4 2 7 -7 7 -10 0 -17
-8 -17 -17z"/>
<path d="M981 83 c-1 -27 3 -33 19 -33 16 0 20 6 19 33 -2 30 -2 30 -6 5 -6
-36 -20 -36 -26 0 -4 25 -4 25 -6 -5z"/>
<path d="M1127 104 c-13 -13 -7 -24 14 -24 11 0 19 5 17 12 -5 14 -22 21 -31
12z"/>
<path d="M1181 78 c2 -28 2 -29 6 -8 3 14 10 28 17 32 7 5 5 8 -6 8 -14 0 -18
-8 -17 -32z"/>
<path d="M1220 93 c0 -10 4 -14 8 -8 4 6 11 13 16 18 5 4 2 7 -7 7 -10 0 -17
-8 -17 -17z"/>
<path d="M1314 95 c-8 -21 2 -45 20 -45 19 0 29 29 15 46 -15 18 -28 18 -35
-1z m31 -15 c0 -7 -6 -15 -12 -17 -8 -3 -13 4 -13 17 0 13 5 20 13 18 6 -3 12
-11 12 -18z"/>
<path d="M1374 95 c-8 -20 2 -45 18 -44 10 0 10 2 1 6 -7 2 -13 13 -13 23 0
10 6 21 13 23 9 4 9 6 -1 6 -7 1 -15 -6 -18 -14z"/>
<path d="M1514 95 c-8 -20 2 -45 18 -44 10 0 10 2 1 6 -7 2 -13 13 -13 23 0
10 6 21 13 23 9 4 9 6 -1 6 -7 1 -15 -6 -18 -14z"/>
<path d="M1565 100 c-3 -5 0 -7 8 -4 20 7 32 -15 18 -29 -9 -9 -14 -8 -22 3
-9 13 -10 13 -6 0 5 -21 33 -24 40 -5 13 32 -21 63 -38 35z"/>
<path d="M1621 77 c2 -31 2 -31 6 -4 2 15 8 27 13 27 5 0 11 -12 13 -27 l4
-28 2 28 c0 15 5 27 10 27 5 0 12 -12 14 -27 4 -27 4 -27 6 4 1 29 -1 31 -34
31 -33 0 -35 -2 -34 -31z"/>
<path d="M882 65 c-11 -12 -10 -15 3 -15 8 0 15 7 15 15 0 18 -2 18 -18 0z"/>
<path d="M1232 65 c-11 -12 -10 -15 3 -15 8 0 15 7 15 15 0 18 -2 18 -18 0z"/>
<path d="M1440 71 c0 -5 5 -13 10 -16 6 -3 10 -2 10 4 0 5 -4 13 -10 16 -5 3
-10 2 -10 -4z"/>
<path d="M1128 58 c5 -5 16 -8 23 -6 8 3 3 7 -10 11 -17 4 -21 3 -13 -5z"/>
</g>
</svg>
